<svg xmlns="http://www.w3.org/2000/svg" viewBox="0 0 32 32" fill="currentColor"><g data-name="2-Book"><path d="M7 26h2v2H7z"/><path
        d="M29 0H7a4.91 4.91 0 0 0-3.52 1.47A4.92 4.92 0 0 0 2 5v22a5 5 0 0 0 5 5h22a1 1 0 0 0 1-1V1a1 1 0 0 0-1-1zm-1 30H7a3 3 0 0 1-3-3 3 3 0 0 1 3-3h18a3 3 0 0 1 2.82 2H11v2h17zm0-7a5 5 0 0 0-3-1H7a4.9 4.9 0 0 0-3 1V5a3 3 0 0 1 .89-2.12A2.94 2.94 0 0 1 7 2h2v11a1 1 0 0 0 1.55.83L13 12.2l2.45 1.63A1 1 0 0 0 17 13V2h11z"/><path d="M25 10V6a1 1 0 0 0-1-1h-4v2h3v2h-3v2h4a1 1 0 0 0 1-1zM19 14h6v2h-6z"/></g></svg>